# xmcd
# 
# Track frame offsets:
#     150
#     24649
#     43235
#     81047
#     98889
#     156810
#     189420
#     223777
#     262096
# 
# Disc length: 3911
# 
# Revision: 3
# Processed by: cddbd v1.5.2PL0 Copyright (c) Steve Scherf et al.
# Submitted via: fre:ac v1.0.27
# 
DISCID=7a0f4509
DTITLE=Craig Taborn Trio - Chants
DYEAR=2013
DGENRE=Jazz
TTITLE0=Saints
TTITLE1=Beat The Ground
TTITLE2=In Chant
TTITLE3=Hot Blood
TTITLE4=All True Night/ Future Perfect
TTITLE5=Crackling Hearts
TTITLE6=Silver Ghosts
TTITLE7=Silver Days Or Love
TTITLE8=Speak The Name
EXTD=YEAR: 2013
EXTT0=
EXTT1=
EXTT2=
EXTT3=
EXTT4=
EXTT5=
EXTT6=
EXTT7=
EXTT8=
PLAYORDER=
